# xmcd
#
# Track frame offsets: 
#        150
#        18516
#        35408
#        61995
#        87256
#        110375
#        130719
#        147145
#        161829
#
# Disc length: 2335 seconds
#
# Revision: 0
# Processed by: cddbd v1.5.2PL0 Copyright (c) Steve Scherf et al.
# Submitted via: ExactAudioCopy v1.0b4
#
DISCID=71091d09
DTITLE=Frankfurt City Blues Band - Ten Years On The Road (LP)
DYEAR=1986
DGENRE=Blues
TTITLE0=The Band Is On The Road
TTITLE1=Rollin' And Tumblin'
TTITLE2=Stormy Monday Blues
TTITLE3=Goin' Down
TTITLE4=I Don't Need No Doctor
TTITLE5=Georgia On My Mind
TTITLE6=Car Song
TTITLE7=Why I Sing The Blues
TTITLE8=Walkin' By Myself
EXTD=
EXTT0=
EXTT1=
EXTT2=
EXTT3=
EXTT4=
EXTT5=
EXTT6=
EXTT7=
EXTT8=
PLAYORDER=
